<?xml version="1.0" standalone="no"?>
<!DOCTYPE svg PUBLIC "-//W3C//DTD SVG 20010904//EN"
 "http://www.w3.org/TR/2001/REC-SVG-20010904/DTD/svg10.dtd">
<svg version="1.0" xmlns="http://www.w3.org/2000/svg"
 width="120.000000pt" height="60.000000pt" viewBox="0 0 120.000000 60.000000"
 preserveAspectRatio="xMidYMid meet">

<g transform="translate(0.000000,60.000000) scale(0.100000,-0.100000)"
fill="#000000" stroke="none">
<path d="M0 350 l0 -100 30 0 c28 0 30 2 30 41 0 50 16 48 45 -4 17 -31 25
-37 53 -37 38 0 39 6 8 53 -24 35 -24 36 -5 53 10 9 19 27 19 40 0 37 -36 54
-112 54 l-68 0 0 -100z m115 40 c0 -9 -11 -16 -27 -18 -23 -3 -28 1 -28 18 0
17 5 21 28 18 16 -2 27 -9 27 -18z"/>
<path d="M647 432 c-36 -39 -13 -82 53 -99 43 -11 55 -43 15 -43 -14 0 -28 7
-31 15 -8 19 -64 20 -64 2 0 -31 40 -57 88 -57 26 0 54 4 62 9 10 7 19 2 32
-20 10 -17 32 -36 48 -42 22 -10 27 -16 20 -27 -6 -8 -10 -34 -10 -57 0 -59
31 -93 91 -100 38 -4 50 -1 77 22 l32 27 0 -26 c0 -25 1 -26 70 -26 68 0 70 1
70 25 0 23 -4 25 -40 25 l-40 0 0 75 0 75 -30 0 c-24 0 -30 -4 -30 -22 l0 -21
-23 21 c-13 12 -29 22 -36 22 -6 0 2 17 19 38 39 48 48 98 26 140 -18 35 -62
62 -98 62 -37 -1 -102 -35 -131 -69 -25 -30 -28 -31 -49 -18 -13 8 -35 17 -50
21 -29 7 -36 20 -17 31 5 4 18 0 28 -9 21 -19 61 -21 61 -3 0 45 -110 66 -143
29z m369 -26 c40 -40 44 -75 13 -125 -27 -45 -56 -68 -99 -79 -51 -13 -97 3
-121 41 -37 60 -2 143 75 178 62 28 93 24 132 -15z m-28 -248 c13 -13 16 -56
6 -82 -7 -19 -45 -21 -62 -4 -16 16 -16 70 0 86 7 7 19 12 28 12 9 0 21 -5 28
-12z"/>
<path d="M916 371 c-24 -26 -11 -45 25 -37 33 6 40 -9 8 -17 -12 -3 -18 -10
-14 -16 9 -16 23 -13 45 9 27 27 16 53 -21 48 -16 -3 -29 -1 -29 4 0 4 7 8 15
8 8 0 15 5 15 10 0 17 -26 11 -44 -9z"/>
<path d="M860 333 c0 -4 7 -17 15 -27 18 -24 19 -37 4 -33 -6 1 -14 -4 -16
-10 -7 -19 32 -16 48 3 10 13 10 20 -3 42 -16 26 -48 43 -48 25z"/>
<path d="M30 208 c-17 -9 -26 -23 -28 -44 -3 -35 9 -48 64 -68 21 -7 39 -19
39 -27 0 -20 -44 -24 -51 -5 -9 24 -54 21 -54 -3 0 -44 77 -65 133 -37 23 13
31 13 55 0 39 -20 85 -17 116 7 32 25 33 47 4 58 -18 7 -25 5 -32 -10 -13 -28
-54 -24 -67 5 -24 51 27 112 59 73 12 -14 62 -12 62 2 0 4 -7 16 -15 28 -23
33 -76 39 -124 16 -34 -17 -42 -18 -54 -6 -20 20 -78 26 -107 11z m66 -42 c3
-8 15 -11 31 -8 19 4 24 1 21 -9 -6 -15 -30 -15 -72 1 -15 5 -24 14 -21 20 9
14 35 12 41 -4z"/>
<path d="M638 202 c-30 -16 -38 -17 -38 -6 0 9 -11 14 -29 14 -26 0 -30 -4
-33 -32 -3 -29 -7 -33 -35 -36 -32 -3 -33 -2 -33 32 0 33 -2 36 -30 36 l-30 0
0 -100 0 -100 30 0 c29 0 30 2 30 46 0 45 0 45 33 42 30 -3 32 -6 35 -45 3
-39 6 -43 29 -43 17 0 27 7 30 20 5 19 7 20 23 5 24 -22 84 -30 118 -16 38 16
54 45 54 99 0 82 -77 124 -154 84z m81 -46 c7 -8 11 -32 9 -53 -2 -31 -7 -39
-26 -41 -32 -5 -52 15 -52 52 0 50 42 75 69 42z"/>
</g>
</svg>
